<svg version="1.1" id="Layer_1" xmlns="http://www.w3.org/2000/svg" x="0" y="0" viewBox="0 0 840 752" xml:space="preserve"><style>.st0{fill:rgba(250,250,250,1)}</style><path id="letra_x5F_S2" class="st0" d="M466.9 394.8c-.4.1-2.2.1-2.9.1h-57.4v13.3h58.3c.5 0 3.8 0 4.6-.1 11.9-1.1 17.3-11 17.3-19.7 0-8.9-5.6-18.4-16.4-19.5-2.1-.2-3.8-.2-4.7-.2h-38.1c-1.7 0-3.5-.1-4.2-.3-3-.8-4.1-3.4-4.1-5.6 0-2 1.1-4.7 4.2-5.6.9-.3 1.9-.3 4-.3h55v-13.2h-55.9c-2.4 0-4.1.1-5.6.3-9.6 1.3-16.3 9-16.3 18.8 0 8 5 17.3 16 18.9 2 .3 4.8.3 6 .3h37.1c.7 0 2.4 0 2.7.1 4.2.6 5.6 3.7 5.6 6.4.1 2.7-1.5 5.6-5.2 6.3z"/><path id="letra_x5F_S1" class="st0" d="M358.3 394.8c-.4.1-2.2.1-2.9.1H298v13.3h58.3c.5 0 3.8 0 4.6-.1 11.9-1.1 17.3-11 17.3-19.7 0-8.9-5.6-18.4-16.4-19.5-2.1-.2-3.8-.2-4.7-.2H319c-1.7 0-3.5-.1-4.2-.3-3-.8-4.1-3.4-4.1-5.6 0-2 1.1-4.7 4.2-5.6.9-.3 1.9-.3 4-.3h55v-13.2H318c-2.4 0-4.1.1-5.6.3-9.6 1.3-16.3 9-16.3 18.8 0 8 5 17.3 16 18.9 2 .3 4.8.3 6 .3h37.1c.7 0 2.4 0 2.7.1 4.2.6 5.6 3.7 5.6 6.4.1 2.7-1.5 5.6-5.2 6.3z"/><path id="letra_x5F_I" class="st0" d="M253.6 343.4H268v65.2h-14.4z"/><path id="letra_x5F_N2" class="st0" d="M221.7 408.6v-65.2h-14.5V392l-48-48.6h-18.6v65.2h14.5v-48.9l48.4 48.9z"/><path id="letra_x5F_N1" class="st0" d="M686.2 343.4V392l-48-48.6h-18.6v65.2H634v-48.9l48.4 48.9h18.2v-65.2z"/><path id="letra_x5F_A" class="st0" d="M544.4 343.4l-40.7 65.2h17.5l7.2-11.6h47.5l7.2 11.6h17.5L560 343.4h-15.6zm24.1 41.2h-32.6l16.3-26.2 16.3 26.2z"/><path id="linea_x5F_INF" class="st0" d="M220.9 306.3c29.1-85 109.4-142.1 199.8-142.1s170.8 57.1 199.8 142.1l.2.7h63.6v-7.6l-26.5-3.1c-16.3-1.9-19.8-9.1-24.2-18.2l-1.1-2.2c-38.2-81.5-121.4-134.2-211.9-134.2s-173.7 52.7-211.9 134.2l-1.1 2.2c-4.4 9.1-7.9 16.3-24.2 18.2l-26.5 3.1v7.6h63.6l.4-.7z"/><path id="linea_x5F_SUP" class="st0" d="M620.8 445l-.2.7c-29.1 85-109.4 142.1-199.8 142.1S250.1 530.7 221 445.7l-.2-.7H157v7.6l26.5 3.1c16.3 1.9 19.8 9.1 24.2 18.2l1.1 2.2c38.2 81.5 121.4 134.2 211.9 134.2s173.7-52.7 211.9-134.1l1.1-2.2c4.4-9.1 7.9-16.3 24.2-18.2l26.5-3.1V445h-63.6z"/></svg>